<svg width="56" height="72" viewBox="0 0 56 72" xmlns="http://www.w3.org/2000/svg">
    <g id="svgGroup" stroke-linecap="round" fill-rule="evenodd" font-size="9pt" stroke="#00000000"
        stroke-width="0.25mm" fill="#0096fa"
        style="stroke:#00000000;stroke-width:0.25mm;fill:#0096fa">
        <path
            d="M 0 72 L 56 72 L 56 0 L 0 0 L 0 72 Z M 15.125 63.25 L 8.75 63.25 L 8.75 56.875 L 15.125 56.875 L 15.125 63.25 Z M 15.125 55.25 L 8.75 55.25 L 8.75 48.875 L 15.125 48.875 L 15.125 55.25 Z M 15.125 47.25 L 8.75 47.25 L 8.75 40.875 L 15.125 40.875 L 15.125 47.25 Z M 15.125 39.25 L 8.75 39.25 L 8.75 32.875 L 15.125 32.875 L 15.125 39.25 Z M 23.125 39.25 L 16.75 39.25 L 16.75 32.875 L 23.125 32.875 L 23.125 39.25 Z M 31.125 39.25 L 24.75 39.25 L 24.75 32.875 L 31.125 32.875 L 31.125 39.25 Z M 39.125 39.25 L 32.75 39.25 L 32.75 32.875 L 39.125 32.875 L 39.125 39.25 Z M 15.125 31.25 L 8.75 31.25 L 8.75 24.875 L 15.125 24.875 L 15.125 31.25 Z M 47.125 31.25 L 40.75 31.25 L 40.75 24.875 L 47.125 24.875 L 47.125 31.25 Z M 15.125 23.25 L 8.75 23.25 L 8.75 16.875 L 15.125 16.875 L 15.125 23.25 Z M 47.125 23.25 L 40.75 23.25 L 40.75 16.875 L 47.125 16.875 L 47.125 23.25 Z M 15.125 15.25 L 8.75 15.25 L 8.75 8.875 L 15.125 8.875 L 15.125 15.25 Z M 23.125 15.25 L 16.75 15.25 L 16.75 8.875 L 23.125 8.875 L 23.125 15.25 Z M 31.125 15.25 L 24.75 15.25 L 24.75 8.875 L 31.125 8.875 L 31.125 15.25 Z M 39.125 15.25 L 32.75 15.25 L 32.75 8.875 L 39.125 8.875 L 39.125 15.25 Z"
            vector-effect="non-scaling-stroke" />
    </g>
</svg>