<svg width="220.313" height="56.25" viewBox="0 0 220.313 56.25" xmlns="http://www.w3.org/2000/svg">
    <g id="svgGroup" stroke-linecap="round" fill-rule="evenodd" font-size="9pt" stroke="#00000000"
        stroke-width="0.25mm" fill="#0096fa"
        style="stroke:#00000000;stroke-width:0.25mm;fill:#0096fa">
        <path
            d="M 0 56.25 L 43.75 56.25 L 43.75 0 L 0 0 L 0 56.25 Z M 44.141 56.25 L 87.891 56.25 L 87.891 0 L 44.141 0 L 44.141 56.25 Z M 88.281 56.25 L 132.031 56.25 L 132.031 0 L 88.281 0 L 88.281 56.25 Z M 132.422 56.25 L 176.172 56.25 L 176.172 0 L 132.422 0 L 132.422 56.25 Z M 176.563 56.25 L 220.313 56.25 L 220.313 0 L 176.563 0 L 176.563 56.25 Z M 11.816 49.414 L 6.836 49.414 L 6.836 44.434 L 11.816 44.434 L 11.816 49.414 Z M 11.816 43.164 L 6.836 43.164 L 6.836 38.184 L 11.816 38.184 L 11.816 43.164 Z M 11.816 36.914 L 6.836 36.914 L 6.836 31.934 L 11.816 31.934 L 11.816 36.914 Z M 11.816 30.664 L 6.836 30.664 L 6.836 25.684 L 11.816 25.684 L 11.816 30.664 Z M 18.066 30.664 L 13.086 30.664 L 13.086 25.684 L 18.066 25.684 L 18.066 30.664 Z M 24.316 30.664 L 19.336 30.664 L 19.336 25.684 L 24.316 25.684 L 24.316 30.664 Z M 30.566 30.664 L 25.586 30.664 L 25.586 25.684 L 30.566 25.684 L 30.566 30.664 Z M 11.816 24.414 L 6.836 24.414 L 6.836 19.434 L 11.816 19.434 L 11.816 24.414 Z M 36.816 24.414 L 31.836 24.414 L 31.836 19.434 L 36.816 19.434 L 36.816 24.414 Z M 11.816 18.164 L 6.836 18.164 L 6.836 13.184 L 11.816 13.184 L 11.816 18.164 Z M 36.816 18.164 L 31.836 18.164 L 31.836 13.184 L 36.816 13.184 L 36.816 18.164 Z M 11.816 11.914 L 6.836 11.914 L 6.836 6.934 L 11.816 6.934 L 11.816 11.914 Z M 18.066 11.914 L 13.086 11.914 L 13.086 6.934 L 18.066 6.934 L 18.066 11.914 Z M 24.316 11.914 L 19.336 11.914 L 19.336 6.934 L 24.316 6.934 L 24.316 11.914 Z M 30.566 11.914 L 25.586 11.914 L 25.586 6.934 L 30.566 6.934 L 30.566 11.914 Z M 62.207 49.414 L 57.227 49.414 L 57.227 44.434 L 62.207 44.434 L 62.207 49.414 Z M 68.457 49.414 L 63.477 49.414 L 63.477 44.434 L 68.457 44.434 L 68.457 49.414 Z M 74.707 49.414 L 69.727 49.414 L 69.727 44.434 L 74.707 44.434 L 74.707 49.414 Z M 68.457 43.164 L 63.477 43.164 L 63.477 38.184 L 68.457 38.184 L 68.457 43.164 Z M 68.457 36.914 L 63.477 36.914 L 63.477 31.934 L 68.457 31.934 L 68.457 36.914 Z M 62.207 30.664 L 57.227 30.664 L 57.227 25.684 L 62.207 25.684 L 62.207 30.664 Z M 68.457 30.664 L 63.477 30.664 L 63.477 25.684 L 68.457 25.684 L 68.457 30.664 Z M 68.457 18.164 L 63.477 18.164 L 63.477 13.184 L 68.457 13.184 L 68.457 18.164 Z M 100.098 49.414 L 95.117 49.414 L 95.117 44.434 L 100.098 44.434 L 100.098 49.414 Z M 125.098 49.414 L 120.117 49.414 L 120.117 44.434 L 125.098 44.434 L 125.098 49.414 Z M 106.348 43.164 L 101.367 43.164 L 101.367 38.184 L 106.348 38.184 L 106.348 43.164 Z M 118.848 43.164 L 113.867 43.164 L 113.867 38.184 L 118.848 38.184 L 118.848 43.164 Z M 112.598 36.914 L 107.617 36.914 L 107.617 31.934 L 112.598 31.934 L 112.598 36.914 Z M 106.348 30.664 L 101.367 30.664 L 101.367 25.684 L 106.348 25.684 L 106.348 30.664 Z M 118.848 30.664 L 113.867 30.664 L 113.867 25.684 L 118.848 25.684 L 118.848 30.664 Z M 100.098 24.414 L 95.117 24.414 L 95.117 19.434 L 100.098 19.434 L 100.098 24.414 Z M 125.098 24.414 L 120.117 24.414 L 120.117 19.434 L 125.098 19.434 L 125.098 24.414 Z M 150.488 49.414 L 145.508 49.414 L 145.508 44.434 L 150.488 44.434 L 150.488 49.414 Z M 156.738 49.414 L 151.758 49.414 L 151.758 44.434 L 156.738 44.434 L 156.738 49.414 Z M 162.988 49.414 L 158.008 49.414 L 158.008 44.434 L 162.988 44.434 L 162.988 49.414 Z M 156.738 43.164 L 151.758 43.164 L 151.758 38.184 L 156.738 38.184 L 156.738 43.164 Z M 156.738 36.914 L 151.758 36.914 L 151.758 31.934 L 156.738 31.934 L 156.738 36.914 Z M 150.488 30.664 L 145.508 30.664 L 145.508 25.684 L 150.488 25.684 L 150.488 30.664 Z M 156.738 30.664 L 151.758 30.664 L 151.758 25.684 L 156.738 25.684 L 156.738 30.664 Z M 156.738 18.164 L 151.758 18.164 L 151.758 13.184 L 156.738 13.184 L 156.738 18.164 Z M 200.879 49.414 L 195.898 49.414 L 195.898 44.434 L 200.879 44.434 L 200.879 49.414 Z M 194.629 43.164 L 189.648 43.164 L 189.648 38.184 L 194.629 38.184 L 194.629 43.164 Z M 207.129 43.164 L 202.148 43.164 L 202.148 38.184 L 207.129 38.184 L 207.129 43.164 Z M 188.379 36.914 L 183.398 36.914 L 183.398 31.934 L 188.379 31.934 L 188.379 36.914 Z M 213.379 36.914 L 208.398 36.914 L 208.398 31.934 L 213.379 31.934 L 213.379 36.914 Z M 188.379 30.664 L 183.398 30.664 L 183.398 25.684 L 188.379 25.684 L 188.379 30.664 Z M 213.379 30.664 L 208.398 30.664 L 208.398 25.684 L 213.379 25.684 L 213.379 30.664 Z M 188.379 24.414 L 183.398 24.414 L 183.398 19.434 L 188.379 19.434 L 188.379 24.414 Z M 213.379 24.414 L 208.398 24.414 L 208.398 19.434 L 213.379 19.434 L 213.379 24.414 Z"
            vector-effect="non-scaling-stroke" />
    </g>
</svg>